Coordinates
version=1
nRows=17
nColumns=63
inDegrees=yes

Units are S.I. units (second, meters, Newtons, ...)
If the header above contains a line with 'inDegrees', this indicates whether rotational values are in degrees (yes) or radians (no).

endheader
time	pelvis_tilt	pelvis_list	pelvis_rotation	pelvis_tx	pelvis_ty	pelvis_tz	hip_flexion_r	hip_adduction_r	hip_rotation_r	knee_angle_r	knee_angle_r_beta	ankle_angle_r	subtalar_angle_r	mtp_angle_r	hip_flexion_l	hip_adduction_l	hip_rotation_l	knee_angle_l	knee_angle_l_beta	ankle_angle_l	subtalar_angle_l	mtp_angle_l	L5_S1_Flex_Ext	L5_S1_Lat_Bending	L5_S1_axial_rotation	L4_L5_Flex_Ext	L4_L5_Lat_Bending	L4_L5_axial_rotation	L3_L4_Flex_Ext	L3_L4_Lat_Bending	L3_L4_axial_rotation	L2_L3_Flex_Ext	L2_L3_Lat_Bending	L2_L3_axial_rotation	L1_L2_Flex_Ext	L1_L2_Lat_Bending	L1_L2_axial_rotation	L1_T12_Flex_Ext	L1_T12_Lat_Bending	L1_T12_axial_rotation	Abs_r3	Abs_r2	Abs_r1	Abs_t1	Abs_t2	neck_flexion	neck_bending	neck_rotation	arm_flex_r	arm_add_r	arm_rot_r	elbow_flex_r	pro_sup_r	wrist_flex_r	wrist_dev_r	arm_flex_l	arm_add_l	arm_rot_l	elbow_flex_l	pro_sup_l	wrist_flex_l	wrist_dev_l
2.416667	0.561160	-3.460723	86.241564	0.154452	0.635064	0.806525	12.387795	0.527985	1.639018	13.277351	0.231733	30.225147	-1.264802	0.000000	9.486047	-1.497158	-19.678992	9.851427	0.171940	31.965396	17.914541	0.000000	-0.034485	-0.529818	-0.774987	-0.064042	-0.704658	-0.823424	-0.056655	-1.288200	-0.823424	-0.039413	-1.288200	-0.678114	-0.032023	-1.080405	-0.629677	-0.019705	-0.820688	-0.581240	-0.246323	-5.993408	-4.310245	0.000000	0.000000	20.455696	9.976312	-8.164835	38.823469	0.300059	25.331481	148.988402	89.306578	3.196255	14.714759	11.416152	-10.087080	53.955460	38.391860	86.515064	-10.736343	-2.707178
2.433333	0.571918	-3.419172	86.262570	0.154314	0.635131	0.806361	12.408795	0.507216	1.456321	13.411232	0.234070	30.256131	-1.108721	0.000000	9.474775	-1.536072	-19.907720	10.043408	0.175291	31.934931	17.890669	0.000000	-0.031671	-0.528014	-0.768800	-0.058817	-0.702259	-0.816850	-0.052033	-1.283814	-0.816850	-0.036197	-1.283814	-0.672700	-0.029410	-1.076727	-0.624650	-0.018097	-0.817894	-0.576600	-0.226225	-5.973003	-4.275833	0.000000	0.000000	20.934348	10.124053	-8.196720	38.518361	0.302854	25.250165	148.817215	89.298579	3.398063	13.940520	11.553461	-10.014587	54.500268	38.164926	86.379701	-10.657265	-2.611607
2.450000	0.606791	-3.377946	86.316787	0.154140	0.635195	0.806156	12.388468	0.511225	1.291246	13.481192	0.235291	30.208074	-1.030329	0.000000	9.447787	-1.589771	-20.095137	10.210528	0.178207	31.896002	17.863766	0.000000	-0.027290	-0.522218	-0.765868	-0.050680	-0.694549	-0.813735	-0.044835	-1.269720	-0.813735	-0.031190	-1.269720	-0.670134	-0.025342	-1.064906	-0.622268	-0.015594	-0.808915	-0.574401	-0.194930	-5.907431	-4.259528	0.000000	0.000000	21.533606	10.280405	-8.179507	38.169709	0.302146	25.060950	148.711131	89.286546	3.647376	13.401753	11.744248	-9.930169	55.148058	37.919873	86.280356	-10.493560	-2.505179
2.466667	0.650018	-3.330515	86.402249	0.153952	0.635271	0.805911	12.321788	0.530358	1.192052	13.490853	0.235460	30.085345	-1.086799	0.000000	9.398996	-1.640813	-20.224174	10.344541	0.180546	31.839063	17.837418	0.000000	-0.022236	-0.514999	-0.768178	-0.041294	-0.684948	-0.816189	-0.036531	-1.252168	-0.816189	-0.025413	-1.252168	-0.672156	-0.020648	-1.050186	-0.624144	-0.012705	-0.797733	-0.576133	-0.158827	-5.825770	-4.272375	0.000000	0.000000	22.186056	10.464330	-8.098423	37.773143	0.315108	24.827325	148.614715	89.272450	3.760007	12.874684	11.974042	-9.850661	55.832912	37.675256	86.193677	-10.217921	-2.409793
2.483333	0.712001	-3.273897	86.527373	0.153718	0.635358	0.805639	12.213307	0.566032	1.082152	13.456816	0.234866	29.924532	-1.176101	0.000000	9.331842	-1.695766	-20.258356	10.445345	0.182306	31.767955	17.801286	0.000000	-0.017293	-0.504955	-0.779207	-0.032115	-0.671590	-0.827908	-0.028411	-1.227748	-0.827908	-0.019764	-1.227748	-0.681806	-0.016058	-1.029704	-0.633106	-0.009881	-0.782175	-0.584406	-0.123522	-5.712153	-4.333718	0.000000	0.000000	22.843855	10.664320	-7.927307	37.342790	0.357510	24.584461	148.512702	89.259591	3.619213	12.339629	12.232581	-9.770322	56.507354	37.436282	86.105953	-9.875874	-2.322771
2.500000	0.769960	-3.211009	86.664374	0.153493	0.635454	0.805345	12.073884	0.599836	0.989658	13.387302	0.233653	29.749119	-1.281331	0.000000	9.248343	-1.736079	-20.229256	10.508321	0.183405	31.685438	17.772950	0.000000	-0.011080	-0.496110	-0.790743	-0.020576	-0.659826	-0.840164	-0.018203	-1.206242	-0.840164	-0.012663	-1.206242	-0.691900	-0.010289	-1.011668	-0.642478	-0.006331	-0.768475	-0.593057	-0.079141	-5.612097	-4.397873	0.000000	0.000000	23.482377	10.900033	-7.742040	36.874518	0.441346	24.254201	148.396700	89.250080	3.422997	11.785771	12.523690	-9.705562	57.192287	37.212665	86.120212	-9.515352	-2.286409
2.516667	0.834907	-3.137473	86.819355	0.153255	0.635553	0.805013	11.906477	0.639900	0.893205	13.299746	0.232124	29.575079	-1.389724	0.000000	9.145656	-1.770821	-20.114470	10.532748	0.183831	31.602943	17.743698	0.000000	-0.003431	-0.486725	-0.805216	-0.006372	-0.647344	-0.855542	-0.005637	-1.183423	-0.855542	-0.003921	-1.183423	-0.704564	-0.003186	-0.992529	-0.654238	-0.001961	-0.753937	-0.603912	-0.024508	-5.505930	-4.478368	0.000000	0.000000	24.076751	11.179847	-7.497879	36.417890	0.553364	23.869821	148.259920	89.244066	3.103855	11.338325	12.823377	-9.643644	57.822360	37.003737	86.133748	-9.131510	-2.245906
2.533333	0.907944	-3.053419	87.021648	0.152953	0.635636	0.804625	11.709741	0.685442	0.803859	13.196701	0.230326	29.411335	-1.557016	0.000000	9.034825	-1.798405	-19.887385	10.532485	0.183827	31.534874	17.706938	0.000000	0.005913	-0.476243	-0.829724	0.010982	-0.633403	-0.881582	0.009715	-1.157938	-0.881582	0.006758	-1.157938	-0.726008	0.005491	-0.971155	-0.674151	0.003379	-0.737701	-0.622293	0.042238	-5.387358	-4.614675	0.000000	0.000000	24.610846	11.506982	-7.166064	36.043709	0.667360	23.515540	148.071312	89.240434	2.505495	11.008448	13.102264	-9.585597	58.327714	36.832552	86.111599	-8.703087	-2.155310
2.550000	0.999186	-2.953529	87.254491	0.152598	0.635718	0.804139	11.476643	0.756013	0.802662	13.075937	0.228218	29.228134	-1.872571	0.000000	8.902163	-1.831898	-19.588848	10.501646	0.183288	31.491597	17.677025	0.000000	0.017091	-0.463203	-0.861096	0.031739	-0.616059	-0.914914	0.028078	-1.126231	-0.914914	0.019533	-1.126231	-0.753459	0.015870	-0.944563	-0.699640	0.009766	-0.717501	-0.645822	0.122077	-5.239840	-4.789157	0.000000	0.000000	25.045594	11.851466	-6.746540	35.787160	0.760051	23.209962	147.802345	89.237512	1.672452	10.819583	13.353690	-9.508066	58.693144	36.661666	86.041394	-8.182339	-1.986137
2.566667	1.099537	-2.845544	87.510192	0.152193	0.635780	0.803577	11.227948	0.841222	0.877261	12.957149	0.226145	29.045267	-2.319944	0.000000	8.762577	-1.866899	-19.246446	10.458028	0.182527	31.485211	17.666227	0.000000	0.029256	-0.448680	-0.893324	0.054332	-0.596744	-0.949156	0.048065	-1.090920	-0.949156	0.033437	-1.090920	-0.781658	0.027167	-0.914948	-0.725825	0.016717	-0.695005	-0.669993	0.208974	-5.075556	-4.968398	0.000000	0.000000	25.389703	12.164504	-6.311096	35.674098	0.800132	22.918900	147.488782	89.235942	0.822401	10.970404	13.575475	-9.416017	58.883123	36.506577	86.120587	-7.590671	-1.758192
2.583333	1.215919	-2.729015	87.785843	0.151722	0.635833	0.802957	10.969883	0.947832	1.011728	12.846086	0.224207	28.864770	-2.874306	0.000000	8.616097	-1.911320	-18.870604	10.402258	0.181554	31.506388	17.662655	0.000000	0.041428	-0.431484	-0.927981	0.076937	-0.573874	-0.985980	0.068063	-1.049110	-0.985980	0.047349	-1.049110	-0.811983	0.038470	-0.879882	-0.753984	0.023672	-0.668368	-0.695986	0.295919	-4.881031	-5.161150	0.000000	0.000000	25.608591	12.437683	-5.836855	35.720221	0.745163	22.790390	147.082138	89.234073	-0.306993	11.158733	13.758438	-9.296298	58.917788	36.352065	86.152306	-6.992267	-1.454442
2.600000	1.352672	-2.609511	88.100929	0.151147	0.635878	0.802309	10.715098	1.069353	1.121333	12.752649	0.222576	28.702320	-3.448299	0.000000	8.479109	-1.971073	-18.450528	10.353214	0.180698	31.558325	17.668439	0.000000	0.052741	-0.411225	-0.966033	0.097946	-0.546929	-1.026410	0.086649	-0.999852	-1.026410	0.060278	-0.999852	-0.845279	0.048976	-0.838570	-0.784902	0.030136	-0.636987	-0.724525	0.376726	-4.651857	-5.372787	0.000000	0.000000	25.679722	12.650029	-5.339424	35.894393	0.576688	22.815711	146.602099	89.232271	-1.615001	11.328826	13.912852	-9.134995	58.833482	36.165389	86.071131	-6.405869	-1.101685
2.616667	1.498088	-2.483973	88.435603	0.150496	0.635929	0.801669	10.473481	1.191916	1.180892	12.692776	0.221531	28.583473	-3.973424	0.000000	8.346503	-2.037741	-18.014043	10.311032	0.179961	31.626548	17.681386	0.000000	0.061473	-0.390030	-1.001248	0.114161	-0.518740	-1.063826	0.100993	-0.948320	-1.063826	0.070257	-0.948320	-0.876092	0.057083	-0.795350	-0.813514	0.035125	-0.604157	-0.750936	0.439093	-4.412102	-5.568639	0.000000	0.000000	25.595162	12.829356	-4.841435	36.141551	0.286837	22.973183	146.080683	89.231920	-3.042229	11.372887	14.048852	-8.930544	58.689716	35.931221	85.820255	-5.887517	-0.730327
2.633333	1.646729	-2.353758	88.770580	0.149794	0.635996	0.801065	10.256547	1.308629	1.169288	12.676639	0.221249	28.516189	-4.396280	0.000000	8.217592	-2.110215	-17.587053	10.276574	0.179360	31.704411	17.698220	0.000000	0.067240	-0.369027	-1.028266	0.124872	-0.490805	-1.092533	0.110469	-0.897251	-1.092533	0.076849	-0.897251	-0.899733	0.062439	-0.752519	-0.835466	0.038421	-0.571622	-0.771200	0.480291	-4.174503	-5.718909	0.000000	0.000000	25.342789	12.993565	-4.327282	36.398820	-0.120458	23.216385	145.554256	89.235678	-4.487316	11.214896	14.172174	-8.677915	58.562303	35.636677	85.339425	-5.482944	-0.366054
2.650000	1.785087	-2.210885	89.100034	0.149050	0.636092	0.800498	10.059809	1.405510	1.106905	12.708323	0.221802	28.513530	-4.720165	0.000000	8.079821	-2.172812	-17.167592	10.244299	0.178797	31.780350	17.705123	0.000000	0.069808	-0.349321	-1.045908	0.129640	-0.464597	-1.111278	0.114687	-0.849339	-1.111278	0.079783	-0.849339	-0.915170	0.064824	-0.712335	-0.849801	0.039888	-0.541098	-0.784431	0.498631	-3.951587	-5.817029	0.000000	0.000000	24.882514	13.162589	-3.700369	36.641686	-0.632422	23.520940	145.037790	89.236416	-5.889072	10.885750	14.295701	-8.392832	58.563283	35.286735	84.641185	-5.194533	-0.067925
2.666667	1.918434	-2.067383	89.425145	0.148288	0.636203	0.799997	9.887407	1.488651	0.964067	12.763204	0.222760	28.563167	-4.925019	0.000000	7.950268	-2.235846	-16.768734	10.219755	0.178368	31.862580	17.721606	0.000000	0.069790	-0.332444	-1.047666	0.129606	-0.442150	-1.113145	0.114658	-0.808304	-1.113145	0.079763	-0.808304	-0.916708	0.064807	-0.677920	-0.851229	0.039878	-0.514956	-0.785750	0.498501	-3.760672	-5.826804	0.000000	0.000000	24.329331	13.360507	-3.122750	36.817229	-1.246609	23.787655	144.578508	89.247975	-7.211627	10.369581	14.374984	-8.067550	58.561846	34.927710	83.630885	-5.015245	0.276336
2.683333	2.036326	-1.915309	89.742169	0.147523	0.636347	0.799562	9.734934	1.543653	0.732553	12.848706	0.224252	28.665627	-4.991812	0.000000	7.815419	-2.286825	-16.383570	10.196507	0.177963	31.941028	17.726978	0.000000	0.066817	-0.318621	-1.034630	0.124087	-0.423766	-1.099295	0.109774	-0.774695	-1.099295	0.076366	-0.774695	-0.905302	0.062047	-0.649732	-0.840637	0.038179	-0.493544	-0.775973	0.477270	-3.604305	-5.754304	0.000000	0.000000	23.677459	13.621849	-2.444372	36.943384	-1.951302	23.993090	144.128713	89.242808	-8.365236	9.666389	14.441019	-7.720469	58.696985	34.547005	82.462815	-4.955920	0.545595
